# xmcd
#
# Track frame offsets:
#	150
#	11868
#	32039
#	60148
#	95354
#	114506
#	138237
#	162239
#	191273
#	223695
#	252069
#
# Disc length: 3583 seconds
#
# Revision: 1
# Processed by: cddbd v1.5.2PL0 Copyright (c) Steve Scherf et al.
# Submitted via: audiograbber 1.83.01
#
DISCID=880dfd0b
DTITLE=Freddie King - Texas Flyer 1974 - 1976 Disc 3
DYEAR=2010
DGENRE=Blues
TTITLE0=Big Leg Woman ( With A Short Short Mini Skirt )
TTITLE1=Woman Across The River
TTITLE2=Signals Of Love
TTITLE3='Tain't Nobody's Bizness If I Do
TTITLE4=Key To The Highway
TTITLE5=Hide Away
TTITLE6=Going Down
TTITLE7=You Sure Look Good To Me
TTITLE8=Come On ( Let The Good Times Roll )
TTITLE9=Have You Ever Loved A Woman
TTITLE10=Boogie Funk
EXTD=
EXTT0=
EXTT1=
EXTT2=
EXTT3=
EXTT4=
EXTT5=
EXTT6=
EXTT7=
EXTT8=
EXTT9=
EXTT10=
PLAYORDER=
